<svg width="30" height="30" viewBox="0 0 30 30" fill="none" xmlns="http://www.w3.org/2000/svg">
<g id="arrow">
<g id="BG">
<rect id="Rectangle 45" width="30" height="30" rx="7" fill="white"/>
</g>
<g id="icon">
<path id="Vector" fill-rule="evenodd" clip-rule="evenodd" d="M13.5292 15.0055L13.5305 15.3006C13.5406 16.471 13.6112 17.5152 13.7328 18.177C13.7328 18.1889 13.8656 18.8453 13.9501 19.0637C14.0828 19.3795 14.3228 19.6475 14.6238 19.8173C14.8647 19.9385 15.1173 20 15.3819 20C15.5898 19.9903 15.9328 19.8858 16.1776 19.798L16.381 19.72C17.7282 19.1848 20.3037 17.4362 21.29 16.3668L21.3628 16.2921L21.6873 15.9418C21.8918 15.6738 22 15.3461 22 14.9936C22 14.6778 21.9037 14.362 21.7109 14.1068C21.6532 14.0242 21.5603 13.9181 21.4776 13.8285L21.1617 13.4978C20.0746 12.3964 17.721 10.8515 16.501 10.3396C16.501 10.3286 15.7428 10.0119 15.3819 10H15.3337C14.7801 10 14.2628 10.3158 13.9982 10.8261C13.926 10.9657 13.8567 11.239 13.804 11.479L13.7092 11.9323C13.601 12.6611 13.5292 13.7792 13.5292 15.0055ZM8.25271 13.7347C7.5609 13.7347 7 14.3011 7 14.9997C7 15.6982 7.5609 16.2646 8.25271 16.2646L11.3354 15.9919C11.8781 15.9919 12.3181 15.5486 12.3181 14.9997C12.3181 14.4516 11.8781 14.0073 11.3354 14.0073L8.25271 13.7347Z" fill="black"/>
</g>
</g>
</svg>
