<svg width="30" height="30" viewBox="0 0 30 30" fill="none" xmlns="http://www.w3.org/2000/svg">
<g id="cart">
<circle id="Ellipse 9" cx="15" cy="15" r="15" fill="white"/>
<g id="icon">
<path id="Vector" fill-rule="evenodd" clip-rule="evenodd" d="M17.9354 20.9993H12.2899C10.2162 20.9993 8.62535 20.2504 9.07723 17.2357L9.60339 13.1502C9.88195 11.646 10.8414 11.0703 11.6833 11.0703H18.5668C19.421 11.0703 20.3248 11.6893 20.6467 13.1502L21.1728 17.2357C21.5566 19.9099 20.0091 20.9993 17.9354 20.9993Z" stroke="black" stroke-linecap="round" stroke-linejoin="round"/>
<path id="Vector_2" d="M18.0283 10.9218C18.0283 9.30815 16.7202 8.00003 15.1065 8.00003C14.3295 7.99674 13.5831 8.30311 13.0325 8.8514C12.4819 9.3997 12.1724 10.1447 12.1724 10.9218" stroke="black" stroke-linecap="round" stroke-linejoin="round"/>
<path id="Vector_3" d="M17.112 13.9668H17.0811" stroke="black" stroke-linecap="round" stroke-linejoin="round"/>
<path id="Vector_4" d="M13.1691 13.9668H13.1382" stroke="black" stroke-linecap="round" stroke-linejoin="round"/>
</g>
</g>
</svg>
