<svg width="14" height="15" viewBox="0 0 14 15" fill="none" xmlns="http://www.w3.org/2000/svg">
<path fill-rule="evenodd" clip-rule="evenodd" d="M9.93536 13.9993H4.28993C2.21622 13.9993 0.625347 13.2504 1.07723 10.2357L1.60339 6.15021C1.88195 4.64599 2.84143 4.07031 3.68329 4.07031H10.5668C11.421 4.07031 12.3248 4.68933 12.6467 6.15021L13.1728 10.2357C13.5566 12.9099 12.0091 13.9993 9.93536 13.9993Z" stroke="white" stroke-linecap="round" stroke-linejoin="round"/>
<path d="M10.0283 3.92179C10.0283 2.30815 8.72016 1.00003 7.1065 1.00003C6.32946 0.996739 5.58312 1.30311 5.0325 1.8514C4.48189 2.3997 4.17236 3.14474 4.17236 3.92179" stroke="white" stroke-linecap="round" stroke-linejoin="round"/>
<path d="M9.11196 6.9668H9.08105" stroke="white" stroke-linecap="round" stroke-linejoin="round"/>
<path d="M5.16914 6.9668H5.13818" stroke="white" stroke-linecap="round" stroke-linejoin="round"/>
</svg>
