<svg width="26" height="26" viewBox="0 0 26 26" fill="none" xmlns="http://www.w3.org/2000/svg">
<path d="M24.8395 17.8654C24.6348 17.5198 24.0588 16.9822 22.6253 17.2382C21.8317 17.379 21.0254 17.443 20.219 17.4046C17.2368 17.2766 14.5361 15.9071 12.6546 13.7952C10.9907 11.9393 9.96681 9.52021 9.95401 6.90916C9.95401 5.45004 10.2356 4.04212 10.8115 2.711C11.3747 1.41827 10.9779 0.739907 10.6963 0.458323C10.4019 0.16394 9.71083 -0.245638 8.3541 0.317531C3.1192 2.51901 -0.119023 7.76671 0.264955 13.3856C0.648934 18.6717 4.36072 23.1899 9.27565 24.8922C10.4531 25.3018 11.6947 25.5449 12.9746 25.5961C13.1794 25.6089 13.3842 25.6217 13.589 25.6217C17.8767 25.6217 21.8957 23.5995 24.43 20.1564C25.2875 18.9661 25.0571 18.211 24.8395 17.8654Z" fill="#292D32"/>
</svg>
